<svg xmlns="http://www.w3.org/2000/svg" viewBox="0 0 24 24"><path d="M12 0C5.373 0 0 5.373 0 12s5.373 12 12 12 12-5.373 12-12S18.627 0 12 0zm5.508 17.307a.748.748 0 0 1-1.028.248c-2.842-1.737-6.42-2.13-10.635-1.167a.75.75 0 0 1-.336-1.462c4.61-1.055 8.56-.6 11.751 1.35a.748.748 0 0 1 .248 1.031zm1.47-3.26c-.303.493-.946.649-1.439.346-3.253-1.999-8.212-2.583-12.06-1.414a.999.999 0 0 1-1.192-.741.999.999 0 0 1 .581-1.21c4.405-1.336 9.883-.687 13.565 1.573.493.303.649.946.346 1.446zm.139-3.393c-3.903-2.318-10.336-2.531-14.103-1.386a1.251 1.251 0 0 1-.723-2.395c4.321-1.312 11.435-1.063 15.938 1.609a1.25 1.25 0 1 1-1.112 2.172z"/></svg>